<svg width="24" height="24" viewBox="0 0 24 24" fill="none" xmlns="http://www.w3.org/2000/svg">
<path fill-rule="evenodd" clip-rule="evenodd" d="M16.748 13.956C16.992 14.09 17.155 14.158 17.214 14.264C17.272 14.37 17.254 14.868 17.024 15.441C16.795 16.014 15.759 16.536 15.301 16.561C14.844 16.585 14.831 16.917 12.341 15.827C9.85001 14.736 8.35101 12.083 8.23301 11.913C8.11501 11.743 7.26901 10.527 7.31401 9.303C7.36001 8.08 8.02501 7.502 8.26201 7.263C8.34857 7.17109 8.45324 7.09813 8.56943 7.04874C8.68561 6.99934 8.81077 6.97457 8.93701 6.976L9.41301 7.014C9.55801 7.02 9.76801 6.944 9.95701 7.45L10.655 9.325C10.712 9.451 10.748 9.598 10.659 9.761L10.395 10.166L10.005 10.588C9.87601 10.708 9.74101 10.837 9.87701 11.091C10.013 11.346 10.482 12.178 11.197 12.865C12.114 13.748 12.906 14.041 13.15 14.174C13.394 14.308 13.54 14.294 13.691 14.132L14.515 13.187C14.69 12.944 14.855 12.992 15.079 13.084L16.748 13.956ZM12 2C17.523 2 22 6.477 22 12C22 17.523 17.523 22 12 22C10.1055 22.003 8.24948 21.4653 6.65001 20.45L2.00001 22L3.55001 17.35C2.5347 15.7505 1.99698 13.8945 2.00001 12C2.00001 6.477 6.47701 2 12 2ZM12 4C10.534 3.99996 9.09625 4.40273 7.84364 5.16433C6.59103 5.92593 5.57177 7.01707 4.89717 8.3186C4.22256 9.62012 3.91856 11.082 4.01835 12.5446C4.11813 14.0071 4.61788 15.4142 5.46301 16.612L4.50001 19.5L7.38801 18.537C8.41576 19.2621 9.59999 19.7346 10.8446 19.9162C12.0892 20.0978 13.359 19.9834 14.5511 19.5822C15.7432 19.1811 16.8239 18.5045 17.7055 17.6075C18.5871 16.7104 19.2448 15.6181 19.6251 14.4192C20.0055 13.2204 20.0978 11.9487 19.8946 10.7075C19.6914 9.46623 19.1984 8.29039 18.4556 7.2754C17.7128 6.26041 16.7411 5.43486 15.6195 4.86576C14.4978 4.29666 13.2578 4.00005 12 4Z" fill="#8BC34A"/>
</svg>
